<svg width="100" height="100" viewBox="0 0 100 100" fill="none" xmlns="http://www.w3.org/2000/svg">
<path d="M50 100C77.6142 100 100 77.6142 100 50C100 22.3858 77.6142 0 50 0C22.3858 0 0 22.3858 0 50C0 77.6142 22.3858 100 50 100Z" fill="#699635"/>
<path d="M49.5005 41.1666C49.3338 39.6666 50.1672 38.1666 51.6672 38.4999C52.8338 38.6666 54.1672 39.8333 53.5005 41C52.5005 42.8333 49.8338 42.8333 48.1672 43.8333C48.3338 44.8333 53.1672 43.6666 54.0005 43.6666C54.8338 43.6666 55.6672 43.9999 55.1672 44.9999C54.6672 46 53.0005 46 52.0005 46.1666C51.0005 46.3333 49.3338 46.3333 48.8338 47.1666C47.8338 48.4999 49.8338 48.6666 50.5005 48.9999C52.1672 49.8333 49.5005 50.6666 48.8338 50.4999C46.3338 49.9999 45.8338 48.6666 44.3338 47C42.8338 49 38.1672 53.4999 37.1672 48.8333C35.5005 49.4999 33.8338 50.3333 32.0005 50.4999C32.8338 49.3333 34.5005 48.8333 35.8338 48.1666C37.5005 47.3333 37.5005 45.8333 38.5005 44.5C38.8338 45 38.5005 45.6666 38.6672 46.3333C40.0005 45.6666 41.6672 44.3333 41.0005 42.6666C41.0005 42.5 39.0005 38.4999 40.6672 39.1666C42.1672 39.8333 41.6672 41.3333 42.0005 42.4999C42.5005 44.6666 41.5005 45.8333 39.8338 47.1666C39.1672 47.6666 37.3338 49.6666 39.5005 49.6666C41.0005 49.6666 42.3338 48 43.1672 47C44.1672 45.6666 43.8338 44.3333 43.1672 42.8333C42.6672 41.6666 41.5005 39.1666 43.0005 38.3333C44.1672 40.1666 44.6672 42.3333 45.1672 44.5C45.5005 46.3333 45.8338 48.1666 47.8338 48.6666C47.6672 47.3333 48.5005 46.3333 49.6672 45.8333C48.8338 45.1666 44.1672 46 46.0005 43.5C46.1672 42.3333 49.5005 41.8333 49.5005 41.1666Z" fill="white"/>
<path d="M23.9995 47.3333C24.8329 49.6666 27.6662 48.8333 29.3329 48.1666C31.9995 46.8333 31.9996 44.8333 31.9996 42.1666C30.9996 42.6666 31.1662 44.5 30.8329 45.3333C30.1662 46.6666 27.9995 47.8333 26.4995 47.6666C24.3329 47.3333 23.3329 43.6666 24.9995 42.3333C25.3329 43.5 24.4995 46 26.4995 46.1666C27.9995 46.3333 30.9995 44.5 30.4995 42.8333C28.4995 43.5 27.3329 42.8333 27.9995 40.6666C28.4995 38.6666 30.4995 40.1666 31.3329 41.1666C34.4995 39.3333 28.8329 32.3333 32.1662 30.5C32.8329 31.6666 33.8329 33.1666 32.9995 34.3333C31.9995 35.6666 32.9995 38.5 33.1662 40C34.8329 38.5 33.4995 41.1666 34.8329 41.3333C35.6662 41.5 35.9995 39.3333 36.4995 39.3333C36.6662 39.8333 36.6662 41.3333 37.4995 41.1666C38.4995 40.8333 37.3329 39.5 38.3329 39.1666C38.6662 40 38.4995 42.5 37.3329 42.3333C36.3329 42.1666 36.4996 41.5 35.3329 42.1666C34.3329 42.6666 33.9995 42.1666 33.3329 41.6666C33.1662 43.6666 33.8329 45.8333 32.6662 47.6666C31.6662 49.1666 29.6662 50 27.9995 50.3333C23.6662 51.1666 22.4995 46.8333 23.9995 43.3333C24.3329 44.3333 23.6662 46.1666 23.9995 47.3333Z" fill="white"/>
<path d="M64.6667 48.1667C65.5001 50.3333 67.1667 45.8333 67.6667 45.1667C69.0001 43.1667 71.0001 48.3333 71.8334 45C72.3334 42.8333 71.6667 40.6667 71.5001 38.5C71.3334 37 70.8334 35.6667 69.8334 34.5C68.8334 33.1667 67.8334 32 68.3334 30.3333C70.0001 31 70.0001 32.3333 70.8334 33.6667C71.0001 32.6667 70.3334 31.3333 71.0001 30.5C71.8334 29.3333 72.5001 32.5 72.5001 32.8333C72.6667 33.6667 71.8334 34 72.3334 35.3333C72.6667 36.3333 73.3334 37.3333 74.0001 38.1667C73.8334 37.1667 72.3334 30.3333 74.0001 30.3333C74.5001 30.3333 75.0001 32.3333 75.0001 32.6667C75.3334 33.6667 74.6667 34.5 74.6667 35.6667C74.5001 37.6667 74.8334 40 76.1667 41.5C76.8334 42.3333 79.3334 45.3333 78.0001 46.3333C77.0001 45.1667 76.3334 43.8333 75.5001 42.6667C75.5001 44 75.8334 45.5 75.1667 46.5C74.5001 46.1667 74.8334 44 74.8334 43.5C74.8334 41.6667 73.6667 40.1667 72.6667 38.6667C72.3334 41.1667 74.3334 45.8333 72.0001 47.6667C70.5001 49 68.5001 46 68.0001 47.1667C67.5001 48 66.3334 51 65.0001 50.6667C63.3334 50.3333 62.1667 45.6667 64.0001 45.1667C64.1667 46 64.1667 47.1667 64.6667 48.1667Z" fill="white"/>
<path d="M29.0001 36.8333C30.1668 37 29.0001 33 29.0001 32.3333C29.1668 31.6666 29.6668 31.3333 30.0001 32C30.5001 33 30.5001 34.1666 30.6668 35.1666C30.6668 36 30.8335 37 30.1668 37.6666C29.1668 38.6666 27.8335 38.1666 27.3335 36.8333C25.0001 38.8333 28.0001 42.3333 26.0001 44.3333C25.6668 42.5 26.0001 40.5 25.3335 38.8333C25.0001 38 23.5001 38.3333 23.3335 36.8333C23.3335 36.1666 23.8335 34.3333 23.1668 33.8333C22.8335 34.5 22.5001 39.6666 20.8335 38.1666C19.5001 37.1666 19.8335 33.8333 20.3335 32.5C21.3335 33 20.1668 36.6666 21.5001 36.8333C22.1668 37 22.3335 34.1666 22.5001 33.6666C23.0001 32.8333 24.6668 30.5 24.3335 32.8333C24.1668 33.8333 23.3335 37 25.3335 36.8333C25.1668 35.1666 25.0001 33.5 24.6668 31.8333C24.5001 31 25.0001 29.3333 25.6668 30.8333C26.1668 31.8333 25.8335 32.3333 25.6668 33.3333C25.5001 34.5 26.0001 35.6666 26.1668 36.6666C27.1668 35.8333 25.8335 32.6666 26.6668 31.3333C28.6668 32.5 26.5001 36.5 29.0001 36.8333Z" fill="white"/>
<path d="M50.5002 37.1666C49.6669 38.3333 48.1669 37.3333 47.5002 36.5C46.6669 37.5 45.0002 39.1666 43.6669 37.8333C42.6669 36.8333 43.8335 35 43.0002 34.1666C42.5002 35 41.6669 39 40.1669 37.1666C39.3335 36.1666 38.1669 32.6666 40.0002 31.8333C39.8335 33.1666 39.5002 34.6666 40.3335 35.8333C41.1669 37 42.0002 34 42.3335 33.3333C42.8335 32.1666 44.5002 30.1666 44.1669 32.6666C44.0002 33.6666 43.6669 36 44.6669 36.6666C45.3335 37.1666 46.1669 36.3333 46.5002 35.8333C47.1669 35 46.8335 33.6666 46.6669 32.6666C46.5002 31.8333 46.1669 30.8333 46.6669 30C47.3335 29 47.8335 31.3333 47.8335 31.8333C47.8335 32.3333 48.5002 37.5 49.6669 35.8333C50.8335 34.3333 47.6669 31 49.8335 30.1666C50.6669 29.8333 52.1669 33.1666 50.5002 32.1666C51.0002 33.6666 51.6669 35.8333 50.5002 37.1666Z" fill="white"/>
<path d="M56.8335 39.1667C57.0001 41.3333 58.8335 47.3333 56.3335 48.6667C56.0001 48 56.3335 47 56.5001 46.1667C56.6668 44.6667 56.3335 43.1667 56.1668 41.8333C55.8335 38.6667 55.5001 36.3333 53.3335 33.8333C52.8335 33.1667 52.0001 32.6667 51.8335 31.6667C51.8335 31.3333 51.6668 29.8333 52.3335 30.1667C52.8335 30.3333 55.6668 32.8333 54.1668 32.8333C54.3335 33.1667 55.0001 34.5 55.3335 34.5C55.3335 33.6667 54.3335 31.1667 55.3335 30.6667C56.1668 30.1667 57.1668 33.3333 56.8335 34C56.5001 34.8333 56.5001 35.3333 56.8335 36.5C57.1668 37.8333 58.0001 39 58.6668 40.1667C59.6668 41.8333 61.6668 44.1667 61.1668 46.3333C60.1668 45.8333 59.5001 43.5 59.0001 42.5C58.6668 41.6667 58.3335 40.8333 57.8335 40.1667C57.6668 40 56.6668 38.6667 56.8335 39.5V39.1667Z" fill="white"/>
<path d="M79.9998 42.3333C80.1665 45.8333 78.9998 50.3333 74.6665 50.3333C74.6665 49.3333 76.8332 48.3333 77.4998 47.8333C79.1665 46.5 78.9998 44 78.8332 42.1667C78.6665 39.6667 78.4998 37.1667 77.9998 34.6667C77.8332 33.1667 76.9998 31 78.3332 30C79.1665 30.6667 80.3332 32.5 79.8332 33.1667C78.9998 34.1667 79.8332 41.6667 79.9998 42.3333Z" fill="white"/>
<path d="M58.6663 49.8333C62.9997 47.3333 61.6663 42 61.333 37.8333C61.1663 36.6666 61.1663 35.5 60.9997 34.3333C60.9997 33.5 60.333 32.3333 60.6663 31.5C61.4997 29.3333 62.1663 31.3333 62.333 32.6666C62.4997 33.5 61.833 33.6666 61.9997 34.3333C62.1663 35.6666 62.1663 37 62.333 38.3333C62.4997 40.5 62.833 42.6666 62.6663 44.6666C62.333 47.8333 60.6663 51.3333 56.833 50.6667C56.9997 50.3333 58.1663 50.1666 58.6663 49.8333Z" fill="white"/>
<path d="M65.6675 41.5C65.8341 43.1667 66.5008 46.1667 65.6675 47.6667C65.0008 48.6667 65.0008 47 64.8341 46.8333C64.6675 45.5 64.6675 44.1667 64.6675 42.6667C64.3341 39 63.1675 35.3333 63.1675 31.8333C63.1675 27.3333 67.0008 34.3333 64.8341 34C65.0008 36.5 65.3341 39 65.6675 41.5Z" fill="white"/>
<path d="M38.5004 33C38.8337 33.8333 34.6671 36 34.1671 36C34.0004 35.1667 36.0004 34 36.5004 33.6667C37.0004 33.1667 37.3337 33.1667 37.1671 32.5C36.8337 31.8333 37.0004 30.6667 37.8337 30.3333C39.5004 29.8333 38.3337 32.3333 38.5004 33Z" fill="white"/>
<path d="M21.3336 47.8333C21.3336 49.1666 21.8336 48.4999 22.5003 48.1666C22.8336 48.8333 22.0003 50.6666 21.1669 49.8333C20.0003 48.6666 21.0003 45.9999 21.5003 44.8333C21.8336 45.6666 21.1669 47 21.3336 47.8333Z" fill="white"/>
<path d="M68.3327 37.5C68.4994 36.8333 67.9994 36.1667 68.4994 35.5C69.166 34.6667 69.8327 35.6667 69.4994 36C69.166 36.3333 68.666 35.6667 68.666 36.6667C68.666 37.1667 68.9994 38.1667 68.4994 38.6667C68.166 38.5 66.666 36.3333 66.8327 36C67.4994 35.3333 68.166 37.3333 68.3327 37.5Z" fill="white"/>
<path d="M24.8333 40.3333C24.5 41 20.6667 43.1666 20.5 42.6666C20.5 42.1666 25.3333 39.3333 24.8333 40.3333Z" fill="white"/>
<path d="M53.1673 48.8333C52.6673 50.3333 54.8339 48.9999 55.3339 48.8333C54.6673 49.9999 52.3339 50.9999 52.6673 48.8333C52.5006 48.8333 52.1673 48.9999 52.0006 48.9999C51.6673 48.6666 53.6673 47.3333 53.1673 48.8333Z" fill="white"/>
<path d="M71.3334 48.3333C71.8334 48.3333 72.6667 49.8333 72.1667 50.1667C71.8334 50.5 70.3334 50.6667 71.1667 50C72.1667 49 71.3334 48.3333 71.3334 48.3333Z" fill="white"/>
<path d="M47.8332 39.8333C47.9999 39.5 47.9999 39 48.1665 38.6666C49.8332 40 45.4999 42.1666 46.3332 39C46.6665 39.3333 46.6665 39.8333 46.9999 40C46.9999 39.6666 47.1665 39.1666 47.1665 38.8333C47.4998 39.1666 47.4999 39.6666 47.8332 39.8333Z" fill="white"/>
<path d="M67.3333 42C66.8333 41.3333 69.8333 39.5 70.3333 39.1667C70.6667 39.6667 68.3333 41.5 67.3333 42Z" fill="white"/>
<path d="M76.6667 35.3333C76.3334 34.3333 75.3334 32.3333 76.3334 31.5C77.0001 32 77.3334 34.5 76.6667 35.3333Z" fill="white"/>
<path d="M58.5006 32C58.334 31.6666 57.834 31.3333 57.834 30.8333C58.0007 30.1666 58.334 30.3333 58.6673 30.6666C59.1673 31.3333 59.5007 33.1666 58.6673 33.6666C58.6673 33.1666 58.834 32.5 58.5006 32Z" fill="white"/>
<path d="M38.1671 36.5C38.1671 37.5 36.5005 38.5 36.3338 37.1666C36.1671 36.6666 37.0005 34.8333 37.3338 35.3333C36.6671 36.8333 36.6671 37.3333 38.1671 36.5Z" fill="white"/>
<path d="M59.0011 34.6666C59.6678 36.3333 59.3344 34.8333 60.0011 34.5C61.1678 36.6666 57.5011 36.1666 58.3344 34.8333C58.5011 35 58.6678 35.3333 58.6678 35.5C58.8344 35.3333 58.8344 35 59.0011 34.6666Z" fill="white"/>
<path d="M69.6677 42.3333C68.8344 41.6666 69.8344 40.8333 70.3344 41.6666C70.6677 42.1666 70.6677 43.5 70.0011 43.8333C70.0011 43.3333 70.1677 42.6666 69.6677 42.3333Z" fill="white"/>
<path d="M35.5003 46C35.5003 45.6666 35.3336 43.1666 35.8336 43.5C36.5003 43.8333 36.3336 45.6666 35.5003 46Z" fill="white"/>
<path d="M28.5002 30.3333C28.6669 30.8333 28.8335 31.5 29.1669 30.6666C30.5002 32.1666 25.8335 31.6666 27.5002 30.1666C27.5002 30.3333 27.8335 31.3333 28.5002 30.3333Z" fill="white"/>
<path d="M45.5002 34C45.5002 33.3333 44.5002 30.5 45.3336 30.5C46.3336 30.6666 46.1669 33.1666 45.5002 34Z" fill="white"/>
<path d="M22.1677 32.5C21.6677 32.3333 22.501 31.5 22.1677 30.8333C21.8344 31 21.501 30.5 21.8344 30.1666C23.1677 29.1666 22.6677 32.5 22.1677 32.5Z" fill="white"/>
<path d="M65.3333 66.3333L64.6667 64.3333L64 66.3333H27.5C27.5 66.3333 27.8333 69.3333 31.5 69.3333H63.8333V71.6666H72.6667V66.3333H65.3333ZM71 70.3333H65V68.6666H71V70.3333Z" fill="white"/>
</svg>
