<svg width="100" height="100" viewBox="0 0 100 100" fill="none" xmlns="http://www.w3.org/2000/svg">
<g clip-path="url(#clip0_54_71)">
<path d="M50 0C63.8086 0 76.3086 5.60547 85.3516 14.6484C94.3945 23.6914 100 36.1914 100 50C100 63.8086 94.3945 76.3086 85.3516 85.3516C76.3086 94.3945 63.8086 100 50 100C36.1914 100 23.6914 94.3945 14.6484 85.3516C5.60547 76.3086 0 63.8086 0 50C0 36.1914 5.60547 23.6914 14.6484 14.6484C23.6914 5.60547 36.1914 0 50 0Z" fill="white"/>
<path d="M33.125 97.1875L46.4453 91.8555L20.8203 81.6016L46.4453 71.3477L20.8203 61.0937L46.4453 50.8398L20.8203 40.5859L46.4453 30.332L20.8203 20.0781L46.4453 9.82422L30.7031 3.53516C36.4258 1.25 42.6563 0 49.1797 0C76.7383 0 99.082 22.3437 99.082 49.9023C99.082 77.4609 76.7383 99.8047 49.1797 99.8047C43.5547 99.8242 38.1641 98.8867 33.125 97.1875Z" fill="#CE1126"/>
</g>
<defs>
<clipPath id="clip0_54_71">
<rect width="100" height="100" fill="white"/>
</clipPath>
</defs>
</svg>
