<svg width="100" height="100" viewBox="0 0 100 100" fill="none" xmlns="http://www.w3.org/2000/svg">
<path d="M50 0C22.3333 0 0 22.3333 0 50H50V0Z" fill="#2A5F9E"/>
<path d="M29.8333 39.3334C24.8333 39.3334 20.6667 35.1667 20.6667 30C20.6667 24.8334 24.8333 20.6667 29.8333 20.6667C31.8333 20.6667 33.5 21.3334 35 22.3334C32.8333 19.8334 29.8333 18.3334 26.3333 18.3334C20 18.3334 15 23.5 15 30C15 36.5 20.1667 41.6667 26.3333 41.6667C29.8333 41.6667 32.8333 40.1667 35 37.6667C33.5 38.6667 31.6667 39.3334 29.8333 39.3334Z" fill="#FFE62E"/>
<path d="M40 28L41.1667 25L40.8333 28.1667L43.1667 26L41.5 28.8333L44.5 27.8333L41.8333 29.5L45 30L41.8333 30.5L44.5 32.1667L41.5 31.1667L43.1667 34L40.8333 31.8333L41.1667 35L40 32L38.8333 35L39.1667 31.8333L36.8333 34L38.5 31.1667L35.5 32.1667L38.1667 30.5L35 30L38.1667 29.5L35.5 27.8333L38.5 28.8333L36.8333 26L39.1667 28.1667L38.8333 25L40 28Z" fill="#FFE62E"/>
<path d="M90 20H50V30H95.8333C94.3333 26.5 92.3333 23 90 20Z" fill="#ED4C5C"/>
<path d="M99 60C99.6667 56.8333 100 53.5 100 50H0C0 53.5 0.333333 56.8333 1 60H99Z" fill="#F9F9F9"/>
<path d="M50 0V10H80C71.6667 3.66667 61.3333 0 50 0Z" fill="#ED4C5C"/>
<path d="M50 20H90C87.1667 16.1667 83.8333 12.8333 80 10H50V20Z" fill="#F9F9F9"/>
<path d="M95.8333 30H50V40H99C98.3333 36.5 97.1667 33.1667 95.8333 30Z" fill="#F9F9F9"/>
<path d="M50 40V50H100C100 46.5 99.6667 43.1667 99 40H50Z" fill="#ED4C5C"/>
<path d="M4.16569 70H95.8324C97.1657 66.8333 98.3324 63.5 98.999 60H0.999023C1.66569 63.5 2.83236 66.8333 4.16569 70Z" fill="#ED4C5C"/>
<path d="M10.0003 80H90.0003C92.3337 77 94.3337 73.5 95.8337 70H4.16699C5.66699 73.5 7.66699 77 10.0003 80Z" fill="#F9F9F9"/>
<path d="M10 80C12.8333 83.8333 16.1667 87.1667 20 90H80C83.8333 87.1667 87.1667 83.8333 90 80H10Z" fill="#ED4C5C"/>
<path d="M20 90C28.3333 96.3333 38.6667 100 50 100C61.3333 100 71.6667 96.3333 80 90H20Z" fill="#F9F9F9"/>
</svg>
